<svg xmlns="http://www.w3.org/2000/svg" viewBox="0 0 800 450">
  <rect width="800" height="450" rx="28" fill="#ECE9E2"/>
  <circle cx="610" cy="120" r="170" fill="#D9E6FC"/>
  <g fill="none" stroke="#0E2233" stroke-width="14" stroke-linecap="round" stroke-linejoin="round">
    <line x1="400" y1="330" x2="400" y2="150"/>
    <path d="M400 150 C400 150 370 170 370 200 C370 215 385 225 400 210"/>
    <path d="M400 150 C400 150 430 170 430 200 C430 215 415 225 400 210"/>
    <path d="M400 200 C400 200 365 218 365 248 C365 265 382 275 400 258"/>
    <path d="M400 200 C400 200 435 218 435 248 C435 265 418 275 400 258"/>
    <path d="M400 258 C400 258 360 276 360 306 C360 323 378 333 400 315"/>
    <path d="M400 258 C400 258 440 276 440 306 C440 323 422 333 400 315"/>
  </g>
  <path d="M280 330 L520 330" stroke="#2E6BE6" stroke-width="14" stroke-linecap="round"/>
</svg>
